<svg width="25" height="25" viewBox="0 0 25 25" fill="none" xmlns="http://www.w3.org/2000/svg">
<mask id="mask0_110_1149" style="mask-type:alpha" maskUnits="userSpaceOnUse" x="0" y="0" width="25" height="25">
<rect x="0.125" y="0.5" width="24" height="24" fill="#D9D9D9"/>
</mask>
<g mask="url(#mask0_110_1149)">
<path d="M6.99037 22C6.34294 22 5.78686 21.7826 5.32212 21.348C4.85737 20.9134 4.625 20.3756 4.625 19.7346V6.08268C4.625 5.50705 4.81122 4.99647 5.18367 4.55096C5.55611 4.10546 6.03014 3.82245 6.60577 3.70193L13.7692 2.24618C14.3282 2.12566 14.8285 2.24457 15.2702 2.60291C15.7118 2.96122 15.9327 3.42821 15.9327 4.00386V15.6308C15.9327 16.0628 15.7971 16.4455 15.5259 16.7788C15.2548 17.1121 14.9115 17.3205 14.4961 17.4038L6.76537 19.0173C6.58972 19.057 6.43908 19.1426 6.31345 19.274C6.1878 19.4054 6.12497 19.5589 6.12497 19.7346C6.12497 19.9564 6.21119 20.1394 6.38362 20.2836C6.55607 20.4279 6.75832 20.5 6.99037 20.5H17.8172C17.907 20.5 17.9807 20.4711 18.0384 20.4134C18.0961 20.3557 18.125 20.282 18.125 20.1923V5.75001C18.125 5.53719 18.1968 5.35899 18.3404 5.21541C18.4839 5.07181 18.6621 5 18.875 5C19.0878 5 19.266 5.07181 19.4095 5.21541C19.5531 5.35899 19.625 5.53719 19.625 5.75001V20.1923C19.625 20.691 19.4483 21.1169 19.0951 21.4701C18.7419 21.8233 18.316 22 17.8172 22H6.99037ZM8.81725 17.0789L14.1923 15.9692C14.2628 15.9564 14.3205 15.9212 14.3654 15.8635C14.4103 15.8058 14.4327 15.7416 14.4327 15.6711V4.02886C14.4327 3.93269 14.3942 3.85256 14.3173 3.78846C14.2404 3.72434 14.1538 3.7019 14.0577 3.72113L8.81725 4.79231V17.0789ZM7.3173 17.3827V5.09613L6.91345 5.18076C6.68523 5.22691 6.49677 5.33171 6.34805 5.49518C6.19933 5.65865 6.12497 5.85448 6.12497 6.08268V17.7289C6.22754 17.6763 6.33267 17.6311 6.44037 17.5933C6.54806 17.5555 6.65639 17.525 6.76537 17.5019L7.3173 17.3827Z" fill="#1C1B1F"/>
</g>
</svg>
