<svg width="17" height="20" viewBox="0 0 17 20" fill="none" xmlns="http://www.w3.org/2000/svg">
<path d="M8 20C7.45 20 6.97917 19.8042 6.5875 19.4125C6.19583 19.0208 6 18.55 6 18H10C10 18.55 9.80417 19.0208 9.4125 19.4125C9.02083 19.8042 8.55 20 8 20ZM0 17V15H2V8C2 6.61667 2.41667 5.3875 3.25 4.3125C4.08333 3.2375 5.16667 2.53333 6.5 2.2V1.5C6.5 1.08333 6.64583 0.729167 6.9375 0.4375C7.22917 0.145833 7.58333 0 8 0C8.41667 0 8.77083 0.145833 9.0625 0.4375C9.35417 0.729167 9.5 1.08333 9.5 1.5V1.825C9.33333 2.15833 9.20833 2.50833 9.125 2.875C9.04167 3.24167 9 3.61667 9 4C9 5.38333 9.4875 6.5625 10.4625 7.5375C11.4375 8.5125 12.6167 9 14 9V15H16V17H0ZM14 7C13.1667 7 12.4583 6.70833 11.875 6.125C11.2917 5.54167 11 4.83333 11 4C11 3.16667 11.2917 2.45833 11.875 1.875C12.4583 1.29167 13.1667 1 14 1C14.8333 1 15.5417 1.29167 16.125 1.875C16.7083 2.45833 17 3.16667 17 4C17 4.83333 16.7083 5.54167 16.125 6.125C15.5417 6.70833 14.8333 7 14 7Z" fill="white"/>
</svg>
