<svg width="20" height="22" viewBox="0 0 20 22" fill="none" xmlns="http://www.w3.org/2000/svg">
<path d="M0.5 21.1152V19.6152H19.5V21.1152H0.5ZM2.5 18.5V13.1538C1.93717 12.1321 1.50733 11.1043 1.2105 10.0703C0.913833 9.03625 0.7655 8.01992 0.7655 7.02125C0.7655 6.11992 0.88025 5.21125 1.10975 4.29525C1.33925 3.37925 1.645 2.40458 2.027 1.37125C2.12183 1.11092 2.27758 0.900667 2.49425 0.7405C2.71092 0.580167 2.95767 0.5 3.2345 0.5C3.60383 0.5 3.91733 0.63175 4.175 0.89525C4.43267 1.15875 4.53775 1.468 4.49025 1.823L4.225 3.99225C4.125 4.83075 4.21342 5.64042 4.49025 6.42125C4.76725 7.20192 5.17467 7.89358 5.7125 8.49625C6.25033 9.09875 6.88975 9.58333 7.63075 9.95C8.37175 10.3167 9.1615 10.5 10 10.5C11.0192 10.5 11.9929 10.5882 12.9212 10.7645C13.8494 10.9408 14.65 11.195 15.323 11.527C16.0153 11.8718 16.5513 12.3128 16.9307 12.85C17.3102 13.3872 17.5 14.0538 17.5 14.85V18.5H2.5ZM4 17H16V14.85C16 14.418 15.8904 14.0382 15.6712 13.7105C15.4519 13.383 15.1333 13.1179 14.7153 12.9152C14.1026 12.6204 13.3751 12.3942 12.5328 12.2365C11.6904 12.0788 10.8462 12 10 12C8.9385 12 7.94008 11.7686 7.00475 11.3058C6.06958 10.8429 5.26642 10.2292 4.59525 9.4645C3.92408 8.69967 3.417 7.82467 3.074 6.8395C2.731 5.85417 2.623 4.841 2.75 3.8C2.58333 4.3 2.4625 4.82692 2.3875 5.38075C2.3125 5.93458 2.275 6.48142 2.275 7.02125C2.275 7.93008 2.43458 8.85283 2.75375 9.7895C3.07308 10.726 3.4885 11.709 4 12.7385V17ZM10 9.26925C9.03467 9.26925 8.21 8.92725 7.526 8.24325C6.842 7.55925 6.5 6.73458 6.5 5.76925C6.5 4.80392 6.842 3.97925 7.526 3.29525C8.21 2.61125 9.03467 2.26925 10 2.26925C10.9653 2.26925 11.79 2.61125 12.474 3.29525C13.158 3.97925 13.5 4.80392 13.5 5.76925C13.5 6.73458 13.158 7.55925 12.474 8.24325C11.79 8.92725 10.9653 9.26925 10 9.26925ZM10 7.76925C10.55 7.76925 11.0208 7.57342 11.4125 7.18175C11.8042 6.79008 12 6.31925 12 5.76925C12 5.21925 11.8042 4.74842 11.4125 4.35675C11.0208 3.96508 10.55 3.76925 10 3.76925C9.45 3.76925 8.97917 3.96508 8.5875 4.35675C8.19583 4.74842 8 5.21925 8 5.76925C8 6.31925 8.19583 6.79008 8.5875 7.18175C8.97917 7.57342 9.45 7.76925 10 7.76925ZM6.26925 18.5V17.8345C6.26925 16.8077 6.62792 15.9311 7.34525 15.2048C8.06258 14.4786 8.93467 14.1155 9.9615 14.1155H13.6538V15.6152H9.9615C9.3435 15.6152 8.82367 15.8323 8.402 16.2663C7.98017 16.7003 7.76925 17.223 7.76925 17.8345V18.5H6.26925Z" fill="#1C1B1F"/>
</svg>
